# xmcd
#
# Track frame offsets: 
#        150
#        12907
#        27760
#        43757
#        63028
#        82228
#        100787
#        121875
#        142518
#        170932
#
# Disc length: 2524 seconds
#
# Revision: 0
# Processed by: cddbd v1.5.2PL0 Copyright (c) Steve Scherf et al.
# Submitted via: ExactAudioCopyFreeDBPlugin 1.0
#
DISCID=7909da0a
DTITLE=Stone Jack Jones - Love and Torture
DYEAR=2015
DGENRE=Blues
TTITLE0=Shine
TTITLE1=Thrill Thrill
TTITLE2=Q and K
TTITLE3=Circumstance
TTITLE4=Ships
TTITLE5=Disappear
TTITLE6=Russia
TTITLE7=Song
TTITLE8=Who
TTITLE9=Say Amen
EXTD=
EXTT0=
EXTT1=
EXTT2=
EXTT3=
EXTT4=
EXTT5=
EXTT6=
EXTT7=
EXTT8=
EXTT9=
PLAYORDER=
